<svg xmlns="http://www.w3.org/2000/svg" viewBox="0 0 690.38 694.22"><defs><style>.cls-1{fill:#97c221;}.cls-2{fill:#fff;}.cls-3{fill:#106888;}.cls-4{font-size:51.76px;}.cls-4,.cls-5{fill:#0a555f;font-family:BerlinSansFBDemi-Bold, Berlin Sans FB Demi;font-weight:700;}.cls-5{font-size:60.76px;}</style></defs><title>logos-AFTP</title><g id="Calque_1" data-name="Calque 1"><path class="cls-1" d="M464.56,395.2h-.11c-53,.66-117.32-47.12-144.2-55.35-25.93-7.93-45.15-2.87-50.49-1.31-8.23,2.37-79.58,25.48-126.2,38.5a2.74,2.74,0,0,1-.72,0c0-1.75-.05-3.5-.05-5.25C142.79,258.11,235,166,348.63,166a205.64,205.64,0,0,1,174.24,96.23,149.63,149.63,0,0,0-29.48,28c-21.75,27.35-1.59,73.29-1.59,73.29C487.34,371.05,479.6,390.3,464.56,395.2Z"/><path class="cls-1" d="M554.29,380.16C550.13,485,467.46,569.73,363.43,577.09a138.21,138.21,0,0,0,12.63-8.48c24.29-18.05,27.84-32.43,28.45-46.52.62-13.81,1.12-50.21,1.31-65.06,17.72-7.71,72.33-36.81,105.53-70.17A296,296,0,0,0,554.29,380.16Z"/><path class="cls-2" d="M387.17,465.15c-.11,3.34-.22,6.92-.36,10.62-.44,12.77-1,27-1.47,38.58-.66,14.72-5.88,25.3-14,33.2q-21,20.36-44.72,28.91c-1.06-.11-2.13-.22-3.2-.36-.79-.11-1.61-.19-2.4-.32L377.4,469Z"/><path class="cls-2" d="M498.83,385.6c-3.53,3-8.56,6.95-9,7.3,0,0-8.31,6.81-9,7,0-.19,3.47-5.88,4.51-7.74.46-.79,1.09-1.81,1.86-2.95C491.12,387.93,495.11,386.69,498.83,385.6Z"/><path class="cls-3" d="M418.29,406.28A159,159,0,0,1,397,399.85c-5.77-2.22-10.94-4.46-15.78-6.73l-.16-.08c-17.21-9-36.65-18.54-60-28.85-2-.9-4.07-1.67-6.07-2.66-13.59-6.8-27.43-7-41.71-2.32q-40.23,13.17-80.53,26.06-23.31,6.64-46.63,13.29l-1.4.41a.76.76,0,0,0-.22.11.52.52,0,0,0-.21.52c.65,5.34,1.55,10.72,2.62,16.06.06.27.14.57.19.84,1.12,5.42,2.46,10.7,4,15.92a.68.68,0,0,0,.35.38l.52.19,29.15,11.13q44.22,16.9,88.42,33.94c14,5.42,27.84,6,41.76-.08,2.05-.9,4.15-1.53,6.23-2.32q9.36-3.57,18-7v0c7.19-2.87,14-5.69,20.48-8.45,12-5.12,23-10.07,33.2-14.88h0c13-6.13,24.89-12,36.35-17.83,3.11-1.59,6.09-3.12,8.91-4.62,8.81-4.73,15.73-9,18.54-12.06C453.1,410.79,428.6,408.87,418.29,406.28Z"/><path class="cls-3" d="M305.29,497.1A31,31,0,0,1,281,498.46c-10.83-3.74-21.47-8.5-32.19-12.82-17.15-6.92-34.24-14-51.33-21-3.42-1.4-4.19-.8-3.94,3.28,1,15.78,2.08,27.16,2.95,42.53A205.3,205.3,0,0,0,321,575.78c.79.13,1.61.21,2.4.32,1.07.14,2.14.25,3.2.36q23.71-8.58,44.72-28.91c8.15-7.9,13.37-18.48,14-33.2.49-11.57,1-25.81,1.47-38.58.14-3.7.25-7.28.36-10.62L377.4,469Z"/><path class="cls-3" d="M578.23,323.7C576.54,341,570,355.8,555.75,366c-.41.3-.84.57-1.31.87-6.62,4-18.38,6.34-28.22,7.58-3.37.43-6.48.71-9.14.87a.48.48,0,0,1-.41-.77c1.45-1.88,3-3.69,4.24-5.68,10.67-17.12,20.79-34.24,26.42-52.29v0a91.76,91.76,0,0,0,4.07-37.66.47.47,0,0,0-.93-.05c-.08.3-.13.57-.19.85-1.8,8.67-3.88,17.2-6.4,25.57v0c-5.88,19.86-13.94,38.75-25.46,56.2-.63,1-1.31,2-2,3a111.08,111.08,0,0,1-14.66,17.2c-.25.22-.49.46-.74.71-.6.55-1.34,1.2-2.19,1.91l0,0c-3.53,3-8.56,7-9,7.3,0,0-8.31,6.81-9,6.95,0-.19,3.48-5.88,4.52-7.74.46-.79,1.09-1.81,1.86-2.95,3.5-5.2,9.43-13,11-15.1a58.83,58.83,0,0,0,6.45-10.31c.66-1.7,1.09-3.28.08-5s-2.05-3.69-3-5.61c-.58-1.17-1.12-2.38-1.64-3.61-4.73-11-6.18-16.54-5.12-28.71,1.15-13,11.22-24.89,18.55-33.42,3.91-4.57,10-9.57,15.83-14.09,3.17-2.48,6.26-4.84,8.86-6.86,11.62-9,14.85-18.65,19.39-33.58a101.56,101.56,0,0,1,6.18,11.29C575.14,269.3,581.1,294.71,578.23,323.7Z"/><text class="cls-4" transform="matrix(0.18, 0.98, -0.98, 0.18, 41.98, 412.64)">L</text><text class="cls-4" transform="matrix(0.27, 0.96, -0.96, 0.27, 47.54, 442.57)">e</text><text class="cls-4" transform="matrix(0.33, 0.94, -0.94, 0.33, 55.18, 468.91)"> </text><text class="cls-4" transform="matrix(0.39, 0.92, -0.92, 0.39, 59.86, 482.42)">c</text><text class="cls-4" transform="matrix(0.47, 0.88, -0.88, 0.47, 68.95, 504.04)">o</text><text class="cls-4" transform="matrix(0.53, 0.85, -0.85, 0.53, 82.73, 529.54)">l</text><text class="cls-4" transform="matrix(0.57, 0.82, -0.82, 0.57, 90.63, 542.16)">l</text><text class="cls-4" transform="matrix(0.63, 0.78, -0.78, 0.63, 99.25, 554.9)">e</text><text class="cls-4" transform="matrix(0.69, 0.73, -0.73, 0.69, 116.74, 576.46)">c</text><text class="cls-4" transform="matrix(0.74, 0.67, -0.68, 0.74, 132.74, 593.2)">t</text><text class="cls-4" transform="matrix(0.78, 0.63, -0.63, 0.78, 148.24, 607.19)">i</text><text class="cls-4" transform="matrix(0.81, 0.58, -0.59, 0.81, 160.28, 616.97)">f</text><text class="cls-4" transform="matrix(0.85, 0.53, -0.54, 0.84, 175.79, 628.15)"> </text><text class="cls-4" transform="matrix(0.88, 0.48, -0.48, 0.88, 188.04, 636.25)">d</text><text class="cls-4" transform="matrix(0.91, 0.41, -0.41, 0.91, 216.58, 651.31)">’</text><text class="cls-4" transform="matrix(0.94, 0.33, -0.33, 0.94, 231.17, 658.09)">a</text><text class="cls-4" transform="matrix(0.97, 0.26, -0.26, 0.97, 261.63, 668.48)">l</text><text class="cls-4" transform="matrix(0.98, 0.18, -0.19, 0.98, 276.55, 672.76)">u</text><text class="cls-4" transform="matrix(1, 0.05, -0.05, 1, 309.13, 679.19)">m</text><text class="cls-4" transform="matrix(1, -0.08, 0.08, 1, 357.19, 681.07)">n</text><text class="cls-4" transform="matrix(0.99, -0.15, 0.15, 0.99, 388.09, 678.38)">i</text><text class="cls-4" transform="matrix(0.98, -0.2, 0.2, 0.98, 403.22, 676.03)"> </text><text class="cls-4" transform="matrix(0.96, -0.27, 0.27, 0.96, 417.66, 673.41)">p</text><text class="cls-4" transform="matrix(0.93, -0.37, 0.37, 0.93, 449.79, 664.12)">o</text><text class="cls-4" transform="matrix(0.89, -0.46, 0.46, 0.89, 477.31, 653.2)">u</text><text class="cls-4" transform="matrix(0.85, -0.53, 0.54, 0.84, 505.72, 638.18)">r</text><text class="cls-4" transform="matrix(0.81, -0.58, 0.58, 0.81, 523.38, 626.85)"> </text><text class="cls-4" transform="matrix(0.78, -0.62, 0.62, 0.78, 534.75, 618.69)">l</text><text class="cls-4" transform="matrix(0.73, -0.68, 0.68, 0.73, 547.12, 609.25)">a</text><text class="cls-4" transform="matrix(0.68, -0.73, 0.73, 0.68, 570.42, 587.17)"> </text><text class="cls-4" transform="matrix(0.62, -0.78, 0.78, 0.62, 580.62, 576.6)">p</text><text class="cls-4" transform="matrix(0.56, -0.83, 0.83, 0.56, 600.76, 550.62)">l</text><text class="cls-4" transform="matrix(0.5, -0.87, 0.87, 0.49, 609.68, 537.86)">a</text><text class="cls-4" transform="matrix(0.4, -0.92, 0.92, 0.4, 625.79, 509.32)">n</text><text class="cls-4" transform="matrix(0.31, -0.95, 0.95, 0.31, 638.3, 480.42)">è</text><text class="cls-4" transform="matrix(0.24, -0.97, 0.97, 0.24, 646.77, 454.03)">t</text><text class="cls-4" transform="matrix(0.16, -0.99, 0.99, 0.16, 651.84, 433.31)">e</text><text class="cls-5" transform="matrix(0.4, -0.92, 0.92, 0.4, 80.18, 277.52)">A</text><text class="cls-5" transform="matrix(0.51, -0.86, 0.86, 0.51, 96.63, 240.09)">L</text><text class="cls-5" transform="matrix(0.62, -0.79, 0.79, 0.62, 112.74, 212.41)">U</text><text class="cls-5" transform="matrix(0.73, -0.68, 0.68, 0.73, 136.98, 180.79)">M</text><text class="cls-5" transform="matrix(0.83, -0.56, 0.56, 0.83, 172.29, 148)">N</text><text class="cls-5" transform="matrix(0.89, -0.46, 0.46, 0.89, 209.33, 124.08)">I</text><text class="cls-5" transform="matrix(0.91, -0.41, 0.41, 0.91, 224.86, 115.98)"> </text><text class="cls-5" transform="matrix(0.94, -0.34, 0.33, 0.94, 237.76, 109.65)">F</text><text class="cls-5" transform="matrix(0.98, -0.2, 0.2, 0.98, 268.58, 98.17)">O</text><text class="cls-5" transform="matrix(1, -0.06, 0.06, 1, 311.93, 89.32)">R</text><text class="cls-5" transform="matrix(1, 0.03, -0.03, 1, 349.64, 87.53)"> </text><text class="cls-5" transform="matrix(0.99, 0.11, -0.11, 0.99, 364.04, 87.61)">T</text><text class="cls-5" transform="matrix(0.97, 0.24, -0.24, 0.97, 394.71, 90.53)">H</text><text class="cls-5" transform="matrix(0.93, 0.37, -0.37, 0.93, 437.3, 101.34)">E</text><text class="cls-5" transform="matrix(0.9, 0.45, -0.45, 0.9, 468.26, 114)"> </text><text class="cls-5" transform="matrix(0.85, 0.53, -0.53, 0.85, 481.33, 119.8)">P</text><text class="cls-5" transform="matrix(0.78, 0.63, -0.63, 0.78, 513.91, 140.13)">L</text><text class="cls-5" transform="matrix(0.69, 0.72, -0.72, 0.69, 539.04, 159.95)">A</text><text class="cls-5" transform="matrix(0.58, 0.82, -0.82, 0.58, 567.32, 189.27)">N</text><text class="cls-5" transform="matrix(0.46, 0.89, -0.89, 0.46, 592.33, 225.26)">E</text><text class="cls-5" transform="matrix(0.36, 0.93, -0.93, 0.36, 607.67, 254.72)">T</text></g></svg>